<svg xmlns="http://www.w3.org/2000/svg" viewBox="0 0 3186.1 1966.3"><defs><style>.cls-1{fill:#32b5b0;}.cls-2{fill:#fff;}.cls-3{fill:#272526;}.cls-4,.cls-6{fill:none;stroke:#fff;stroke-miterlimit:10;}.cls-4{stroke-width:5px;}.cls-5{fill:#bcbcbb;opacity:0.55;}.cls-6{stroke-width:4px;}</style></defs><title>Fichier 29</title><g id="Calque_2" data-name="Calque 2"><g id="Calque_9" data-name="Calque 9"><path class="cls-1" d="M3186,21.4V0H.1V20.5A6.6,6.6,0,0,0,0,21.9V1944.5a29.8,29.8,0,0,0,.4,4.2v17.6H3186v-21.4c0-.1.1-.3.1-.4V21.9C3186.1,21.7,3186,21.6,3186,21.4ZM823.5,1130.5c-66.3-1.1-120.6-55-122.1-121.3a124.1,124.1,0,0,1,96.1-123.8V748.6H787a8.9,8.9,0,0,1-8.9-9V724.8a9,9,0,0,1,8.9-9h77a9.1,9.1,0,0,1,9,9v14.8a9,9,0,0,1-9,9H853.5V885.4a124.2,124.2,0,0,1-30,245.1ZM979.2,439.4c-81.7,0-148.2,68.9-148.2,153.5h0v1.6h0V715.7h-9.1V594.5h0v-1.6h0c0-89.6,70.6-162.6,157.3-162.6h162.9c90,0,155.3,62.8,155.3,149.2h-9.1c0-40.8-14.6-76-42.3-101.7s-63.5-38.4-103.9-38.4Zm295.3,796.1a9.8,9.8,0,0,1-9.8,9.8h-13.6v199.9a31.7,31.7,0,1,1-63.4,0V1245.3h-21.9a9.8,9.8,0,0,1-9.8-9.8V1233a9.8,9.8,0,0,1,9.8-9.8h98.9a9.8,9.8,0,0,1,9.8,9.8Zm142.6,0a9.8,9.8,0,0,1-9.8,9.8h-17.7v199.9a31.8,31.8,0,0,1-63.5,0V1245.3h-17.7a9.8,9.8,0,0,1-9.8-9.8V1233a9.8,9.8,0,0,1,9.8-9.8h98.9a9.8,9.8,0,0,1,9.8,9.8Zm144.4,0a9.8,9.8,0,0,1-9.8,9.8H1534v199.9a31.7,31.7,0,0,1-63.4,0V1245.3h-17.7a9.8,9.8,0,0,1-9.8-9.8V1233a9.8,9.8,0,0,1,9.8-9.8h98.8a9.8,9.8,0,0,1,9.8,9.8Zm340.6-600.1,73.5-123.7,2.3-3.9V420.3h53.4v88.8l72.2,128.8a7.9,7.9,0,0,1-7,11.8l-187.7-2.4A7.9,7.9,0,0,1,1902.1,635.4Zm228.3,856.3a139.6,139.6,0,0,1-32.6-275.4v-84h-17.4v-4.5a17.8,17.8,0,0,1-9.3-15.6h0a17.8,17.8,0,0,1,9.3-15.6v-1.9h6a9.7,9.7,0,0,1,2.4-.2h86.9a8.6,8.6,0,0,1,2.3.2h2.4v.5a17.6,17.6,0,0,1,13,17h0a17.7,17.7,0,0,1-13,17v3.1H2163v84a139.6,139.6,0,0,1-32.6,275.4Zm768-730.6a9.8,9.8,0,0,1-9.8,9.8h-18.7V1519a31.7,31.7,0,0,1-31.7,31.7H2836a31.7,31.7,0,0,1-31.8-31.7V770.9h-18.6a9.8,9.8,0,0,1-9.8-9.8V746.6a9.8,9.8,0,0,1,9.8-9.8h43.9V678.9h0a80.5,80.5,0,0,0-80.4-80.4H2216.3a80.5,80.5,0,0,0-80.4,80.4h-.7V1093h-9.5V678.9h-.7a100.5,100.5,0,0,1,1.3-15.6V413.4h2.9V384.6a20,20,0,0,0-20-20.1h-81.3a20.2,20.2,0,0,0-16.5,8.7v45.5h-10.7v-137h-.1c0-46.9-41.9-85-93.5-85H1551.2c-51.5,0-93.4,38.1-93.4,85h-.2V529.5h0a9.9,9.9,0,0,0,2.4,6.3l4.5,3.8a19.1,19.1,0,0,0,8.9,2.4h66.3c13,0,23.6,13.3,23.6,29.7s-10.6,29.7-23.6,29.7h-77.2c-6.9,0-12.7,8.6-12.7,18.7s5.8,18.8,12.7,18.8h70.8c13.1,0,23.7,13.3,23.7,29.6s-9.7,28.5-21.9,29.6h-70.2c-6.8.3-12.4,8.8-12.4,18.7s5.7,18.4,12.4,18.7h70.2c12.2,1.1,21.9,13.9,21.9,29.5s-10.6,29.7-23.7,29.7h-84.1c-6.9,0-12.7,8.6-12.7,18.8s5.8,18.7,12.7,18.7H1520c13,0,23.7,13.3,23.7,29.7s-9.7,28.4-21.9,29.5h-70.3c-6.7.4-12.3,8.8-12.3,18.8s5.6,18.3,12.3,18.7h70.3c12.2,1.1,21.9,13.9,21.9,29.6s-10.7,29.6-23.7,29.6h-69.9a16.5,16.5,0,0,0-8.3,2.9l-2.2,1.9a11.6,11.6,0,0,0-3.2,7.1v155.4c38.8,2.4,69.5,30.6,69.5,65h-6.8c0-32.7-30.5-59.3-68.2-59.3s-68.1,26.6-68.1,59.3h-7.3c0-32.7-30.5-59.3-68.2-59.3s-68.1,26.6-68.1,59.3h-6.8c0-35.4,32.4-64.2,72.9-65.1V851.6h4.7a46.3,46.3,0,0,1-46.3-46.3V627.4a46.3,46.3,0,1,1,92.5,0V805.3a46.2,46.2,0,0,1-46.2,46.3h4.7V1156c30.7,2.6,55.9,21.3,64.4,46.3,8.8-25.6,35-44.5,66.6-46.4V1001.2h-.1a4.9,4.9,0,0,1,.1-1.2v-1.6h.1c1.4-11.2,11.7-20.1,24.3-20.6H1520c6.9,0,12.7-8.6,12.7-18.7s-5.6-18.4-12.3-18.8h-70.3c-12.2-1.1-21.8-13.9-21.8-29.5s9.6-28.5,21.8-29.6h70.3c6.7-.4,12.3-8.8,12.3-18.7s-5.8-18.8-12.7-18.8h-70.8c-13,0-23.7-13.3-23.7-29.6s10.7-29.7,23.7-29.7h84.1c6.9,0,12.8-8.6,12.8-18.8s-5.6-18.4-12.4-18.7h-70.2c-12.2-1.1-21.9-14-21.9-29.6s9.7-28.4,21.9-29.5h70.3c6.7-.4,12.3-8.8,12.3-18.8s-5.9-18.7-12.8-18.7h-70.8c-13,0-23.6-13.3-23.6-29.7s10.6-29.7,23.6-29.7h77.2c6.9,0,12.7-8.5,12.7-18.7s-5.8-18.7-12.7-18.7h-66.4c-14.8-.3-26.3-10.9-26.3-23.8h0V281.7h-.2c0-52.9,46.9-96,104.4-96h355.9c55.9,0,101.6,40.6,104.3,91.3h0v.2c.1,1.5.1,3,.1,4.5h-.1v85.9a23.9,23.9,0,0,1,16.5-6.7h81.3a23.7,23.7,0,0,1,23.7,23.7v28.8h2.9V635.9a91.4,91.4,0,0,1,80.5-48.3h532.8a91.5,91.5,0,0,1,91.4,91.3h-.1v57.9h48.2a9.8,9.8,0,0,1,9.8,9.8Z"/><path class="cls-2" d="M2096.6,654.2h-.2l-187.7-2.3a12.5,12.5,0,0,1-10.7-6.4,12.2,12.2,0,0,1,.2-12.4l75.1-126.5V415.7h62.5v92.2l71.6,127.8a12.2,12.2,0,0,1-.1,12.4A12.5,12.5,0,0,1,2096.6,654.2Zm-.1-9.1h.1a3.3,3.3,0,0,0,2.9-1.6,3.6,3.6,0,0,0,0-3.4l-72.8-129.8V424.9h-44.3v84.2L1906,637.7a3.3,3.3,0,0,0,0,3.4,3.4,3.4,0,0,0,2.8,1.7l187.7,2.3Z"/><circle class="cls-3" cx="2409.5" cy="1164.2" r="36.9"/><path class="cls-2" d="M2130.4,1496.3c-79.4,0-144.1-64.7-144.1-144.2a143.6,143.6,0,0,1,107-139.3v-85h74.3v85a143.6,143.6,0,0,1,107,139.3C2274.6,1431.6,2209.9,1496.3,2130.4,1496.3Zm-28-359.4v83l-3.5.9a134.6,134.6,0,0,0-103.5,131.3c0,74.5,60.6,135.1,135,135.1s135.1-60.6,135.1-135.1A134.6,134.6,0,0,0,2162,1220.8l-3.5-.9v-83Z"/><path class="cls-4" d="M2804.2,770.9h65.7a0,0,0,0,1,0,0v762.4a17.4,17.4,0,0,1-17.4,17.4h-30.9a17.4,17.4,0,0,1-17.4-17.4V770.9A0,0,0,0,1,2804.2,770.9Z"/><path class="cls-2" d="M1407.3,1249.8h-98.9a14.3,14.3,0,0,1-14.3-14.3V1233a14.3,14.3,0,0,1,14.3-14.3h98.9a14.3,14.3,0,0,1,14.3,14.3v2.5A14.3,14.3,0,0,1,1407.3,1249.8Zm-98.9-22a5.2,5.2,0,0,0-5.2,5.2v2.5a5.2,5.2,0,0,0,5.2,5.2h98.9a5.2,5.2,0,0,0,5.2-5.2V1233a5.2,5.2,0,0,0-5.2-5.2Z"/><path class="cls-2" d="M1551.7,1249.8h-98.8a14.4,14.4,0,0,1-14.4-14.3V1233a14.4,14.4,0,0,1,14.4-14.3h98.8a14.4,14.4,0,0,1,14.4,14.3v2.5A14.4,14.4,0,0,1,1551.7,1249.8Zm-98.8-22a5.2,5.2,0,0,0-5.3,5.2v2.5a5.2,5.2,0,0,0,5.3,5.2h98.8a5.2,5.2,0,0,0,5.3-5.2V1233a5.2,5.2,0,0,0-5.3-5.2Z"/><path class="cls-2" d="M825.5,1135.1h-2.1a129.2,129.2,0,0,1-126.6-125.6c-1.3-59.6,38.9-112.6,96.1-127.6V753.2H787a13.6,13.6,0,0,1-13.5-13.6V724.8A13.5,13.5,0,0,1,787,711.3h77a13.5,13.5,0,0,1,13.5,13.5v14.8A13.6,13.6,0,0,1,864,753.2h-5.9V881.9a128.7,128.7,0,0,1-32.6,253.2ZM787,720.4a4.4,4.4,0,0,0-4.4,4.4v14.8a4.5,4.5,0,0,0,4.4,4.5h15V889l-3.5.9c-54.9,12.6-93.8,62.8-92.5,119.2a119.9,119.9,0,0,0,117.6,116.8h1.9a119.5,119.5,0,0,0,27-236L849,889V744.1h15a4.5,4.5,0,0,0,4.4-4.5V724.8a4.4,4.4,0,0,0-4.4-4.4Z"/><path class="cls-2" d="M1290,856.1a50.9,50.9,0,0,1-50.8-50.8V627.4a50.8,50.8,0,1,1,101.6,0V805.3A50.9,50.9,0,0,1,1290,856.1Zm0-270.5a41.8,41.8,0,0,0-41.7,41.8V805.3a41.7,41.7,0,1,0,83.4,0V627.4A41.8,41.8,0,0,0,1290,585.6Z"/><path class="cls-2" d="M1215.2,1481.5a36.3,36.3,0,0,1-36.2-36.3V1240.7h72.5v204.5A36.3,36.3,0,0,1,1215.2,1481.5Zm-27.1-231.7v195.4a27.2,27.2,0,1,0,54.3,0V1249.8Z"/><path class="cls-2" d="M1502.6,1481.5a36.4,36.4,0,0,1-36.3-36.3V1240.7h72.5v204.5A36.3,36.3,0,0,1,1502.6,1481.5Zm-27.2-231.7v195.4a27.2,27.2,0,1,0,54.3,0V1249.8Z"/><path class="cls-2" d="M1358.2,1481.5a36.3,36.3,0,0,1-36.2-36.3V1240.7h72.5v204.5A36.4,36.4,0,0,1,1358.2,1481.5Zm-27.1-231.7v195.4a27.2,27.2,0,1,0,54.3,0V1249.8Z"/><path class="cls-2" d="M1264.7,1249.8h-98.9a14.3,14.3,0,0,1-14.3-14.3V1233a14.3,14.3,0,0,1,14.3-14.3h98.9A14.3,14.3,0,0,1,1279,1233v2.5A14.3,14.3,0,0,1,1264.7,1249.8Zm-98.9-22a5.2,5.2,0,0,0-5.2,5.2v2.5a5.2,5.2,0,0,0,5.2,5.2h98.9a5.2,5.2,0,0,0,5.2-5.2V1233a5.2,5.2,0,0,0-5.2-5.2Z"/><path class="cls-3" d="M1632.6,1259H1090.7c-3.6,0-6.5,2.4-6.5,5.5v1c0,3,2.9,5.4,6.5,5.4H1130v284.8h-14.1c-5,0-9.1,3.5-9.1,7.7V1577c0,4.2,4.1,7.7,9.1,7.7h491.5c5.1,0,9.2-3.5,9.2-7.7v-13.6c0-4.2-4.1-7.7-9.2-7.7h-10.3V1270.9h35.5c3.6,0,6.5-2.4,6.5-5.4v-1C1639.1,1261.4,1636.2,1259,1632.6,1259ZM1583,1555.7H1144.2V1270.9H1583Z"/><circle class="cls-3" cx="1770.4" cy="460.8" r="36.9"/><rect class="cls-3" x="1761.6" y="285.1" width="17.8" height="1264.34"/><rect class="cls-3" x="1655.7" y="451.1" width="345" height="19.3"/><rect class="cls-3" x="1682.2" y="1547.2" width="176.5" height="37.61" rx="7.7"/><rect class="cls-3" x="1927.2" y="434.7" width="146.9" height="52.17" rx="12"/><circle class="cls-5" cx="1770.3" cy="460.8" r="26.1"/><circle class="cls-3" cx="620.9" cy="801.8" r="36.9"/><rect class="cls-3" x="612.8" y="654.2" width="17.8" height="920.51"/><rect class="cls-3" x="487.1" y="793.9" width="264.6" height="19.3"/><rect class="cls-3" x="533.4" y="1547.2" width="176.5" height="37.61" rx="7.7"/><rect class="cls-3" x="749.6" y="775.7" width="146.9" height="52.17" rx="12"/><circle class="cls-3" cx="2409.5" cy="827.2" r="36.9"/><rect class="cls-3" x="2400.5" y="712.7" width="17.8" height="845.33"/><rect class="cls-3" x="2207.2" y="1156.4" width="332.3" height="19.3"/><rect class="cls-3" x="2277.2" y="818.2" width="505" height="19.3"/><circle class="cls-5" cx="2409.4" cy="1164.2" r="26.1"/><circle class="cls-5" cx="2409.4" cy="827.2" r="26.1"/><rect class="cls-3" x="2321.1" y="1547.2" width="176.5" height="37.61" rx="7.7"/><rect class="cls-3" x="2061.7" y="1140" width="146.9" height="52.17" rx="12"/><rect class="cls-3" x="2766.3" y="801.1" width="146.9" height="52.17" rx="12"/><circle class="cls-5" cx="620.8" cy="801.8" r="26.1"/><rect class="cls-6" x="2775.1" y="733.4" width="123.4" height="35.44" rx="9.7"/><path class="cls-2" d="M2175.7,1133.6h-86.9a21.4,21.4,0,0,1,0-42.8h86.9a21.4,21.4,0,0,1,0,42.8Zm-86.9-35.5a14.1,14.1,0,0,0,0,28.2h86.9a14.1,14.1,0,0,0,0-28.2Z"/></g></g></svg>