<svg xmlns="http://www.w3.org/2000/svg" viewBox="0 0 1077.5 1936"><defs><style>.cls-1{fill:#1c968d;}</style></defs><title>Fichier 34</title><g id="Calque_2" data-name="Calque 2"><g id="Calque_1-2" data-name="Calque 1"><path class="cls-1" d="M127.4,1265.3c0-227.4,184.3-411.7,411.7-411.7h0c227.4,0,411.7,184.3,411.7,411.7"/><polygon class="cls-1" points="306 849 773.4 849 654.3 988.3 450.2 988.3 306 849"/><rect class="cls-1" x="211.2" width="661.4" height="873.76" rx="330.7"/><circle class="cls-1" cx="238.5" cy="125.6" r="69.4"/><circle class="cls-1" cx="310.7" cy="95" r="55.5"/><circle class="cls-1" cx="866.5" cy="133.9" r="69.4"/><circle class="cls-1" cx="794.3" cy="103.4" r="55.5"/><circle class="cls-1" cx="915.1" cy="203.3" r="69.4"/><circle class="cls-1" cx="185.8" cy="203.3" r="69.4"/><rect class="cls-1" x="452.4" y="773.6" width="170.1" height="214.74"/><polygon class="cls-1" points="306 849 553.4 970.8 489.2 1154.8 251.8 970.1 306 849"/><polygon class="cls-1" points="773.4 849 526 970.8 590.2 1154.8 827.6 970.1 773.4 849"/><path class="cls-1" d="M1077.5,1921.4V1936H3.5c-3.1-.2-3.1-.3-3.4-3.5s1-7.1.9-10.8a123,123,0,0,1,1.2-13.5c.9-7.3,1.3-14.6,2.3-22s1.2-15,2.1-22.5c.4-3.4.6-6.9,1-10.3.7-7,1.7-14,2.5-21.1s1-14.1,1.9-21.1,1.9-15.8,2.8-23.8c.3-3.3.6-6.6,1-9.9.8-6.4,1.7-12.8,2.5-19.2s1.1-12.9,2-19.3,1.6-13.8,2.7-20.6c.6-3.7.6-7.5,1.3-11.2,1-5.6,1.5-11.3,2.2-17s1.3-11.7,2.1-17.5,1.7-11.6,2.4-17.4,1.3-11.4,2.1-17.1c1.1-7.7,2.3-15.4,3.4-23.2l2.1-16.1c1.1-7,2.3-14,3.3-20.9s1.9-14.4,3-21.5c1.7-10.7,3.5-21.4,5.2-32.1s3.1-19.9,4.8-29.9,3.5-19.2,5.2-28.9c2.6-14.5,5.1-29,7.8-43.5,2.1-11.1,4.6-22.2,6.7-33.3,5.2-27.4,11.4-54.5,18-81.7,2.4-10.1,5-20.2,7.6-30.3,4.7-18.1,9.7-36.1,15.3-54,4.6-14.4,9.4-28.7,14.5-42.9,5.8-16,12.2-31.6,19.3-47a273.1,273.1,0,0,1,28.3-48.5c9-12.1,19.1-23.1,32.6-30.3,7.4-3.9,15.3-6.5,23.7-6.6.2,3.1,3,3.2,4.8,4.3q34.7,22.8,69.4,45.5l42.9,28,68.7,44.9,46.4,30.3c1.2.8,2.4,1.8,4.1,1.5h0c.3,2.1,1.9,2.4,3.6,2.8h0a1.5,1.5,0,0,0,1.1.8c3.2,1.9,5.8,4.7,9.2,6.4,1.4-1.2,1.6-2.8,2-4.2q16.5-47.1,32.9-94.3c.5-1.6.8-3.3,2-4.5,1.6,2.7,3.1,5.4,4.8,8.2l27,44.5,26,43c.6.9,1.1,1.8,2.3,1.9a.7.7,0,0,1,.1.6,2,2,0,0,0,.9,2.1c1.8,3,1.8,3,4.5,1l1-.8,59.8-46.6,84.6-65.8,84.9-66.1c1.5.2,2.3,1.4,3.3,2.3l6.4,6.4c.8.8,1.5,2,2.6,1.7s4.5.3,6.7.5a50.9,50.9,0,0,1,20.6,7.6,98.9,98.9,0,0,1,26.4,23.9,242.6,242.6,0,0,1,24.9,38.4c5.7,10.9,11.1,22.1,16.1,33.5,6.6,15.3,12.7,30.7,18.1,46.4q13.3,38.4,24.2,77.5,9.3,33.6,17.4,67.5c4.4,18.4,8.5,37,12.4,55.6q8.7,40.7,16.3,81.5c2.8,14.7,5.4,29.3,8,44,1.7,9.5,3.2,19,4.8,28.5s3.5,20.5,5.2,30.7c1.4,8.5,2.8,16.9,4.1,25.4s2.7,17.3,4,25.9l3.3,22.3c1,6.9,2.2,13.7,3,20.5s2,15.3,3.1,22.9,2,14.9,3.3,22.3,1.7,15.8,2.9,23.7c1.8,11.3,2.9,22.7,4.6,34s2.8,21.8,4.2,32.7,3.1,22.3,4,33.6c.3,3.3.5,6.6,1.1,9.9.9,5.9,1.7,11.9,2.3,17.9s1.1,13.5,2,20.2c1.5,10.1,2.6,20.3,3.5,30.5C1075.8,1920.1,1075.9,1921.2,1077.5,1921.4Z"/></g></g></svg>